<svg width="65" height="60" viewBox="0 0 65 60" fill="none" xmlns="http://www.w3.org/2000/svg">
<path d="M63.2654 48.6662H62.0804C65.0267 45.7989 65.0909 41.0858 62.2236 38.1395C61.7686 37.672 61.2543 37.2664 60.6937 36.933C62.947 35.5874 64.3283 33.1576 64.3321 30.533C64.3267 26.4116 60.9869 23.0718 56.8655 23.0665H47.2656V15.5999C47.2654 15.0108 46.7876 14.5334 46.1986 14.5337C46.1444 14.5337 46.0903 14.5378 46.0368 14.5461L33.3991 16.4895V15.4932C35.8806 14.983 37.6625 12.8001 37.6657 10.2666C37.6657 5.61176 33.2743 1.16595 33.0866 0.979288C32.6701 0.562893 31.9949 0.562893 31.5784 0.979288C31.3906 1.16595 26.9992 5.61176 26.9992 10.2666C27.0024 12.8001 28.7844 14.983 31.2658 15.4932V16.8191L18.3039 18.8137C17.784 18.8937 17.4 19.3405 17.3993 19.8665V31.7501C16.6203 30.9098 15.7218 30.1888 14.7327 29.6104C14.4027 29.4199 13.996 29.4199 13.6661 29.6104C10.5162 31.4406 8.38985 34.6247 7.90612 38.2354C7.16893 38.0842 6.41868 38.0052 5.66615 37.9996C5.19536 38.0018 4.72523 38.0323 4.25817 38.0914C3.87977 38.137 3.55458 38.381 3.40485 38.7313C1.23127 43.8299 2.92525 49.754 7.4656 52.9328H0.332886V55.0661H2.87365L4.7115 58.7428C4.89216 59.1044 5.26189 59.3328 5.66615 59.3327H46.199C46.788 59.3327 47.2656 58.8551 47.2656 58.266V55.0661H54.073L55.9109 58.7428C56.0915 59.1044 56.4612 59.3328 56.8655 59.3327H61.1321C61.7212 59.3327 62.1988 58.8551 62.1988 58.266V55.0661H63.2654C63.8545 55.0661 64.3321 54.5885 64.3321 53.9994V49.7328C64.3321 49.1437 63.8545 48.6662 63.2654 48.6662ZM62.1988 43.3329C62.1953 46.2769 59.8095 48.6627 56.8655 48.6662H37.6657C34.7203 48.6662 32.3325 46.2783 32.3325 43.3329C32.3325 40.3875 34.7203 37.9996 37.6657 37.9996H51.5322C53.2996 37.9996 54.7322 39.4323 54.7322 41.1996C54.7322 42.9669 53.2996 44.3995 51.5322 44.3995H40.8657C40.2766 44.3995 39.7991 43.922 39.7991 43.3329C39.7991 42.7438 40.2766 42.2662 40.8657 42.2662H48.3323V40.1329H40.8657C39.0984 40.1329 37.6657 41.5656 37.6657 43.3329C37.6657 45.1002 39.0984 46.5328 40.8657 46.5328H51.5322C54.4762 46.5294 56.862 44.1435 56.8655 41.1996C56.8616 40.0417 56.477 38.9173 55.7711 37.9996H56.8655C59.8095 38.0031 62.1953 40.3889 62.1988 43.3329ZM53.6656 25.1998C55.4329 25.1998 56.8655 26.6324 56.8655 28.3997C56.8655 30.1671 55.4329 31.5997 53.6656 31.5997H42.999C42.41 31.5997 41.9324 31.1221 41.9324 30.533C41.9324 29.944 42.41 29.4664 42.999 29.4664H50.4656V27.3331H42.999C41.2317 27.3331 39.7991 28.7657 39.7991 30.533C39.7991 32.3004 41.2317 33.733 42.999 33.733H53.6656C56.6095 33.7295 58.9953 31.3437 58.9988 28.3997C58.9977 27.2995 58.6532 26.2271 58.0132 25.332C60.8857 25.9838 62.6861 28.8407 62.0344 31.7132C61.486 34.1306 59.3443 35.8514 56.8655 35.8663H51.5322H41.9324C38.9869 35.8663 36.5991 33.4785 36.5991 30.533C36.5991 27.5876 38.9869 25.1998 41.9324 25.1998H53.6656ZM29.1325 10.2666C29.1325 7.53921 31.1858 4.70297 32.3325 3.33339C33.4802 4.70191 35.5324 7.53281 35.5324 10.2666C35.5268 11.6178 34.6731 12.8199 33.3991 13.2703V11.3333H31.2658V13.2703C29.9918 12.8199 29.1381 11.6178 29.1325 10.2666ZM14.1994 31.7896C16.5824 33.3934 18.1255 35.9772 18.4073 38.8359C16.8164 39.4712 15.3836 40.4465 14.209 41.6934C13.0258 40.4513 11.5862 39.482 9.99036 38.8529C10.2673 35.9878 11.8113 33.3967 14.1994 31.7896ZM19.55 40.6756C20.5726 40.3164 21.6486 40.1329 22.7326 40.1329C22.9001 40.1329 23.075 40.1393 23.2574 40.1511C25.0147 45.1533 22.3842 50.6328 17.382 52.3901C16.3594 52.7493 15.2832 52.9328 14.1994 52.9328C14.0319 52.9328 13.857 52.9264 13.6746 52.9146C11.9173 47.9124 14.5478 42.4329 19.55 40.6756ZM4.5995 43.3329C4.59817 42.2492 4.78136 41.1732 5.14136 40.1511C5.32376 40.1393 5.49869 40.1329 5.66615 40.1329C8.42825 40.1247 11.0572 41.3188 12.8682 43.4044C11.119 46.0929 10.5665 49.3876 11.3429 52.4997C7.33106 51.2493 4.5987 47.5351 4.5995 43.3329ZM22.0734 57.1994H6.32534L5.25869 55.0661H23.1401L22.0734 57.1994ZM32.3325 57.1994H24.4584L25.5251 55.0661H28.0659V52.9328H20.9246C25.47 49.7584 27.1683 43.8325 24.9939 38.7324C24.8442 38.382 24.519 38.138 24.1406 38.0924C22.9269 37.9364 21.6957 37.9796 20.4958 38.2204C20.3294 37.034 19.9816 35.8803 19.4644 34.7997H19.5326V20.7817L45.1323 16.8436V23.0665H41.9324C37.814 23.061 34.471 26.3952 34.4655 30.5136C34.4629 32.5581 35.2996 34.5141 36.7804 35.9239C32.6915 36.4063 29.7681 40.1121 30.2505 44.201C30.4506 45.8975 31.2274 47.4739 32.4509 48.6662H31.2658C30.6768 48.6662 30.1992 49.1437 30.1992 49.7328V53.9994C30.1992 54.5885 30.6768 55.0661 31.2658 55.0661H32.3325V57.1994ZM37.0066 57.1994H34.4658V55.0661H38.0732L37.0066 57.1994ZM45.1323 57.1994H39.3916L40.4582 55.0661H45.1323V57.1994ZM60.0655 57.1994H57.5247L56.458 55.0661H60.0655V57.1994ZM62.1988 52.9328H32.3325V50.7995H62.1988V52.9328Z" fill="black"/>
</svg>
