<svg width="80" height="69" viewBox="0 0 80 69" fill="none" xmlns="http://www.w3.org/2000/svg">
<path opacity="0.4" d="M37.4554 3.83158C36.8056 2.86287 35.468 2.65359 34.5533 3.37749L0.758827 30.1234C0.279523 30.5027 0 31.0804 0 31.6916V37.488C0 38.0993 0.279521 38.677 0.758825 39.0563L34.5533 65.8022C35.468 66.5261 36.8056 66.3168 37.4554 65.3481L43.2087 56.7718C43.7595 55.9507 43.6277 54.8502 42.8984 54.1825L22.4924 35.4985C21.6093 34.6899 21.6297 33.2919 22.536 32.5095L42.8261 14.9933C43.5913 14.3326 43.7432 13.2048 43.18 12.3652L37.4554 3.83158ZM73.3178 1.84015C72.6574 0.855777 71.2907 0.658485 70.3789 1.41592L36.5553 29.5137C36.0979 29.8937 35.8333 30.4575 35.8333 31.0521V36.9305C35.8333 37.5115 36.0859 38.0637 36.5254 38.4436L70.3736 67.7018C71.2822 68.4872 72.6733 68.3003 73.3424 67.3029L79.0852 58.7421C79.6169 57.9495 79.5145 56.8916 78.8405 56.2157L58.1132 35.43C57.32 34.6346 57.3373 33.342 58.1515 32.5681L78.7769 12.9638C79.4834 12.2923 79.6029 11.2093 79.06 10.3999L73.3178 1.84015Z" fill="#FFD9C9"/>
</svg>
