<svg width="26" height="26" viewBox="0 0 26 26" fill="none" xmlns="http://www.w3.org/2000/svg">
<circle cx="13" cy="13" r="13" fill="#266D70"/>
<path d="M5.5 10.5L5.5366 15.4195L6.55813 15.427L6.53363 12.1336L6.54753 12.1337L8.63594 15.4423L9.72697 15.4504L9.69037 10.5309L8.66883 10.5234L8.69339 13.8237L8.67949 13.8236L6.58408 10.508L5.5 10.5Z" fill="white"/>
<path d="M10.6508 10.538L10.6874 15.4575L14.4539 15.4852L14.4471 14.5758L11.7717 14.556L11.7627 13.3503L14.1671 13.368L14.1609 12.5274L11.7565 12.5097L11.7486 11.4555L14.3685 11.4749L14.3617 10.5654L10.6508 10.538Z" fill="white"/>
<path d="M19.919 15.5256L21.2166 10.6159L20.1465 10.608L19.3586 13.9919L19.3447 13.9918L18.4717 10.5957L17.4502 10.5882L16.6134 13.9303L16.5995 13.9302L15.7893 10.5759L14.6983 10.5679L16.0483 15.497L17.1532 15.5052L17.9553 12.1627L17.9692 12.1628L18.8349 15.5176L19.919 15.5256Z" fill="white"/>
</svg>
