<svg width="26" height="26" viewBox="0 0 26 26" fill="none" xmlns="http://www.w3.org/2000/svg">
<circle cx="13" cy="13" r="13" fill="#266D70"/>
<path d="M15.87 15.6C15.87 15.43 15.875 15.24 15.885 15.03C15.905 14.82 15.95 14.625 16.02 14.445C16.09 14.265 16.19 14.115 16.32 13.995C16.46 13.875 16.65 13.815 16.89 13.815C17.11 13.815 17.28 13.885 17.4 14.025C17.53 14.155 17.625 14.315 17.685 14.505C17.745 14.685 17.78 14.88 17.79 15.09C17.81 15.29 17.82 15.465 17.82 15.615C17.82 15.775 17.81 15.96 17.79 16.17C17.78 16.37 17.74 16.565 17.67 16.755C17.61 16.935 17.51 17.09 17.37 17.22C17.24 17.35 17.06 17.415 16.83 17.415C16.59 17.415 16.405 17.35 16.275 17.22C16.145 17.09 16.05 16.935 15.99 16.755C15.93 16.565 15.895 16.365 15.885 16.155C15.875 15.945 15.87 15.76 15.87 15.6ZM14.34 15.585C14.34 15.995 14.38 16.38 14.46 16.74C14.55 17.1 14.69 17.415 14.88 17.685C15.08 17.945 15.335 18.15 15.645 18.3C15.965 18.45 16.355 18.525 16.815 18.525C17.255 18.525 17.635 18.455 17.955 18.315C18.275 18.165 18.535 17.96 18.735 17.7C18.945 17.44 19.1 17.135 19.2 16.785C19.3 16.435 19.35 16.055 19.35 15.645C19.35 15.235 19.31 14.85 19.23 14.49C19.15 14.13 19.01 13.82 18.81 13.56C18.62 13.29 18.37 13.08 18.06 12.93C17.75 12.77 17.36 12.69 16.89 12.69C16.45 12.69 16.07 12.765 15.75 12.915C15.43 13.065 15.165 13.27 14.955 13.53C14.745 13.79 14.59 14.095 14.49 14.445C14.39 14.795 14.34 15.175 14.34 15.585ZM15.495 7.5L9.285 18.645H10.59L16.77 7.5H15.495ZM8.13 10.62C8.13 10.45 8.135 10.255 8.145 10.035C8.165 9.815 8.21 9.61 8.28 9.42C8.35 9.23 8.45 9.07 8.58 8.94C8.72 8.81 8.91 8.745 9.15 8.745C9.37 8.745 9.54 8.815 9.66 8.955C9.79 9.095 9.885 9.265 9.945 9.465C10.005 9.665 10.04 9.875 10.05 10.095C10.07 10.305 10.08 10.485 10.08 10.635C10.08 10.795 10.07 10.975 10.05 11.175C10.04 11.365 10 11.55 9.93 11.73C9.87 11.9 9.77 12.045 9.63 12.165C9.5 12.285 9.32 12.345 9.09 12.345C8.85 12.345 8.665 12.285 8.535 12.165C8.405 12.045 8.31 11.9 8.25 11.73C8.19 11.55 8.155 11.36 8.145 11.16C8.135 10.96 8.13 10.78 8.13 10.62ZM6.6 10.59C6.6 11 6.64 11.385 6.72 11.745C6.81 12.095 6.95 12.4 7.14 12.66C7.34 12.91 7.595 13.11 7.905 13.26C8.225 13.4 8.615 13.47 9.075 13.47C9.515 13.47 9.895 13.4 10.215 13.26C10.535 13.12 10.795 12.925 10.995 12.675C11.205 12.425 11.36 12.13 11.46 11.79C11.56 11.44 11.61 11.06 11.61 10.65C11.61 10.24 11.57 9.85 11.49 9.48C11.41 9.11 11.27 8.79 11.07 8.52C10.88 8.24 10.63 8.02 10.32 7.86C10.01 7.7 9.62 7.62 9.15 7.62C8.71 7.62 8.33 7.7 8.01 7.86C7.69 8.01 7.425 8.22 7.215 8.49C7.005 8.76 6.85 9.075 6.75 9.435C6.65 9.795 6.6 10.18 6.6 10.59Z" fill="white"/>
</svg>
