<svg width="26" height="26" viewBox="0 0 26 26" fill="none" xmlns="http://www.w3.org/2000/svg">
<circle cx="13" cy="13" r="13" fill="#266D70"/>
<path fill-rule="evenodd" clip-rule="evenodd" d="M16.3298 7.22095C16.0321 7.28472 15.7402 7.37339 15.4574 7.48604C15.7181 6.5724 15.862 5.62957 15.8855 4.67998L16.0736 4.77696C16.2756 5.57526 16.3619 6.39827 16.3298 7.22095ZM14.7471 7.79638C14.4093 7.95266 14.0628 8.08973 13.7093 8.20695C14.2994 6.53965 14.6552 4.799 14.7666 3.03449L14.9385 3.12501C15.1184 4.68259 15.0539 6.25861 14.7471 7.79638ZM17.919 15.0475L17.7828 15.1219C18.3958 13.735 19.3136 12.2124 19.9687 10.8675C19.8064 10.4047 19.5376 9.98618 19.1839 9.64554C18.2758 11.5852 17.2606 13.7156 16.5341 15.7329L16.4369 15.7781C17.1114 13.3697 18.1233 11.4527 18.9503 9.43541C18.6557 9.21086 18.3273 9.03411 17.9774 8.91169C16.8951 11.2813 16.0005 13.7317 15.3017 16.2404L15.1979 16.2824C15.7363 13.5798 16.7839 11.1552 17.6758 8.82118C17.3265 8.74458 16.972 8.69379 16.6152 8.66924C15.4789 11.2462 14.6442 13.945 14.1277 16.7124L14.0174 16.7577C14.2851 14.5996 14.792 12.4778 15.5288 10.4311C15.7233 9.84597 15.9147 9.28023 16.0866 8.64661C15.7623 8.64661 15.4379 8.62721 15.0779 8.64661C14.7536 9.61644 14.358 10.5443 14.0369 11.5076C13.4053 13.3615 13.0342 15.2937 12.9342 17.249L12.8499 17.2911C12.7655 14.1262 13.7839 11.4721 14.5623 8.63691C14.238 8.63691 13.8877 8.6563 13.5504 8.67247C13.4466 8.97958 13.3396 9.2867 13.2261 9.59058C12.5191 11.6175 11.8542 13.6413 11.7374 16.0561C11.7084 16.6717 11.7236 17.2886 11.7828 17.9021L11.6953 17.9603C11.1569 14.8923 12.2628 11.6984 12.9569 8.70156L11.8153 8.76945C11.3597 9.97997 10.9753 11.2159 10.6639 12.471C10.638 12.5906 10.6088 12.7102 10.5861 12.8298C10.2358 14.7016 10.1256 16.8449 10.6931 18.8169L10.6185 18.8978C10.3912 18.2333 10.2378 17.546 10.1612 16.8482C9.78178 13.3923 10.4856 11.0292 11.2477 8.4591C11.491 7.64768 11.7374 6.81362 11.9612 5.9149C12.1104 5.31684 12.2628 4.69938 12.3666 4.09161L12.198 4.13687L12.0812 4.44399C11.6466 5.55606 11.212 6.5453 10.8066 7.46664C10.3396 8.53346 9.90827 9.50976 9.56125 10.4861C8.39693 13.7641 8.32883 16.7997 9.82395 19.9193L9.77205 20.0034C7.60559 16.596 8.09207 12.4193 9.56773 8.85674C9.67476 8.59811 9.79476 8.31686 9.89205 8.08087L9.69097 8.14229C8.8363 9.41086 8.16486 10.7929 7.6964 12.2479C7.26217 13.6617 7.11336 15.1472 7.25857 16.6187C7.39049 18.1407 7.94529 19.596 8.86071 20.8213C9.76386 22.0016 10.9614 22.9256 12.3342 23.5013L12.4769 23.3202C11.6693 21.1866 12.8466 19.6154 14.5234 18.3999C16.106 17.2393 18.3082 16.1758 19.4206 14.4559C19.7396 13.9874 19.9613 13.4601 20.0727 12.9049C20.1841 12.3497 20.1829 11.7779 20.0692 11.2231C19.4206 12.471 18.5449 13.7738 17.919 15.0475ZM13.5569 2L13.7288 2.04203C13.7288 2.29742 13.7612 2.54957 13.7644 2.80496C13.7936 4.74463 13.4985 6.3384 13.0412 8.32979L11.9028 8.52053C12.7644 6.43712 13.3214 4.24121 13.5569 2V2Z" fill="white"/>
</svg>
