<svg xmlns="http://www.w3.org/2000/svg">
    <symbol viewBox="0 0 16 16" id="header-inst">
        <path d="M11.3021 0.799805H4.69795C2.54858 0.799805 0.799988 2.54839 0.799988 4.69776V11.302C0.799988 13.4512 2.54858 15.1998 4.69795 15.1998H11.3022C13.4514 15.1998 15.2 13.4512 15.2 11.302V4.69776C15.2 2.54839 13.4514 0.799805 11.3021 0.799805V0.799805ZM14.3558 11.302C14.3558 12.9858 12.9859 14.3556 11.3021 14.3556H4.69795C3.01407 14.3556 1.64418 12.9858 1.64418 11.302V4.69776C1.64418 3.01388 3.01407 1.644 4.69795 1.644H11.3022C12.9859 1.644 14.3558 3.01388 14.3558 4.69776V11.302Z"/>
        <path d="M7.99984 4.0625C5.82871 4.0625 4.06244 5.82878 4.06244 7.9999C4.06244 10.171 5.82871 11.9373 7.99984 11.9373C10.171 11.9373 11.9372 10.171 11.9372 7.9999C11.9372 5.82878 10.171 4.0625 7.99984 4.0625ZM7.99984 11.0931C6.29432 11.0931 4.90663 9.70553 4.90663 7.9999C4.90663 6.29438 6.29432 4.90669 7.99984 4.90669C9.70547 4.90669 11.093 6.29438 11.093 7.9999C11.093 9.70553 9.70547 11.0931 7.99984 11.0931Z"/>
        <path d="M12.0315 2.66406C11.3899 2.66406 10.868 3.18602 10.868 3.82752C10.868 4.46912 11.3899 4.99108 12.0315 4.99108C12.6731 4.99108 13.1951 4.46912 13.1951 3.82752C13.1951 3.18591 12.6731 2.66406 12.0315 2.66406ZM12.0315 4.14678C11.8555 4.14678 11.7122 4.00352 11.7122 3.82752C11.7122 3.65141 11.8555 3.50825 12.0315 3.50825C12.2076 3.50825 12.3509 3.65141 12.3509 3.82752C12.3509 4.00352 12.2076 4.14678 12.0315 4.14678Z"/>
    </symbol>
    <symbol viewBox="0 0 10 16" id="header-fb">
        <path d="M5.88271 16H3.28696C2.85339 16 2.50069 15.6519 2.50069 15.2239V9.44458H0.98628C0.552707 9.44458 0.200012 9.09631 0.200012 8.66846V6.19202C0.200012 5.76404 0.552707 5.41589 0.98628 5.41589H2.50069V4.17578C2.50069 2.94617 2.89185 1.90002 3.63174 1.15063C4.37497 0.397827 5.41364 0 6.63546 0L8.6151 0.00317381C9.04794 0.00390625 9.40001 0.352051 9.40001 0.779297V3.07861C9.40001 3.50659 9.04744 3.85474 8.61399 3.85474L7.28112 3.85522C6.87463 3.85522 6.77112 3.93567 6.74899 3.96033C6.71251 4.00122 6.6691 4.11682 6.6691 4.43604V5.41577H8.51382C8.6527 5.41577 8.78725 5.44958 8.90287 5.51331C9.15231 5.65088 9.30739 5.91101 9.30739 6.19214L9.3064 8.66858C9.3064 9.09631 8.9537 9.44446 8.52013 9.44446H6.6691V15.2239C6.6691 15.6519 6.31628 16 5.88271 16ZM3.45094 15.062H5.71873V9.02466C5.71873 8.73889 5.95431 8.50647 6.24369 8.50647H8.35615L8.35701 6.35388H6.24356C5.95419 6.35388 5.71873 6.12146 5.71873 5.83569V4.43604C5.71873 4.06958 5.75644 3.65283 6.03667 3.3396C6.37527 2.96094 6.90889 2.91724 7.28087 2.91724L8.44976 2.91675V0.940918L6.63472 0.937988C4.67115 0.937988 3.45094 2.17871 3.45094 4.17578V5.83569C3.45094 6.12134 3.21548 6.35388 2.9261 6.35388H1.15026V8.50647H2.9261C3.21548 8.50647 3.45094 8.73889 3.45094 9.02466V15.062ZM8.61325 0.941162H8.61337H8.61325Z"/>
    </symbol>
    <symbol viewBox="0 0 16 10" id="header-vk">
        <path d="M8.09667 10C10.4113 10 9.586 8.53467 9.76467 8.11333C9.762 7.79867 9.75933 7.496 9.77 7.312C9.91667 7.35333 10.2627 7.52867 10.9773 8.22333C12.0807 9.33667 12.3627 10 13.254 10H14.8947C15.4147 10 15.6853 9.78467 15.8207 9.604C15.9513 9.42933 16.0793 9.12267 15.9393 8.64533C15.5733 7.496 13.4387 5.51133 13.306 5.302C13.326 5.26333 13.358 5.212 13.3747 5.18533H13.3733C13.7947 4.62867 15.4027 2.21933 15.6393 1.25533C15.64 1.254 15.6407 1.252 15.6407 1.25C15.7687 0.81 15.6513 0.524667 15.53 0.363333C15.3473 0.122 15.0567 0 14.664 0H13.0233C12.474 0 12.0573 0.276667 11.8467 0.781333C11.494 1.678 10.5033 3.522 9.76067 4.17467C9.738 3.25 9.75333 2.544 9.76533 2.01933C9.78933 0.996 9.86667 0 8.80467 0H6.226C5.56067 0 4.924 0.726667 5.61333 1.58933C6.216 2.34533 5.83 2.76667 5.96 4.864C5.45333 4.32067 4.552 2.85333 3.91467 0.978C3.736 0.470667 3.46533 0.000666618 2.70333 0.000666618H1.06267C0.397333 0.000666618 0 0.363333 0 0.970667C0 2.33467 3.01933 10 8.09667 10ZM2.70333 1.00067C2.848 1.00067 2.86267 1.00067 2.97 1.30533C3.62267 3.22733 5.08667 6.07133 6.156 6.07133C6.95933 6.07133 6.95933 5.248 6.95933 4.938L6.95867 2.47C6.91467 1.65333 6.61733 1.24667 6.422 1L8.76067 1.00267C8.762 1.014 8.74733 3.73267 8.76733 4.39133C8.76733 5.32667 9.51 5.86267 10.6693 4.68933C11.8927 3.30867 12.7387 1.24467 12.7727 1.16067C12.8227 1.04067 12.866 1 13.0233 1H14.664H14.6707C14.67 1.002 14.67 1.004 14.6693 1.006C14.5193 1.706 13.0387 3.93667 12.5433 4.62933C12.5353 4.64 12.528 4.65133 12.5207 4.66267C12.3027 5.01867 12.1253 5.412 12.5507 5.96533H12.5513C12.59 6.012 12.6907 6.12133 12.8373 6.27333C13.2933 6.744 14.8573 8.35333 14.996 8.99333C14.904 9.008 14.804 8.99733 13.254 9.00067C12.924 9.00067 12.666 8.50733 11.6813 7.514C10.796 6.65267 10.2213 6.30067 9.698 6.30067C8.682 6.30067 8.756 7.12533 8.76533 8.12267C8.76867 9.204 8.762 8.862 8.76933 8.93C8.71 8.95333 8.54 9 8.09667 9C3.86667 9 1.112 2.286 1.006 1.00267C1.04267 0.999334 1.54733 1.00133 2.70333 1.00067Z"/>
    </symbol>
    <symbol viewBox="0 0 18 14" id="header-youtube">
        <path d="M14.0592 0.706055H3.94081C2.09863 0.706055 0.600006 2.20948 0.600006 4.05714V9.69748C0.600006 11.5455 2.09863 13.0486 3.94081 13.0486H14.0592C15.9014 13.0486 17.4 11.5451 17.4 9.69748V4.05714C17.4 2.20948 15.9014 0.706055 14.0592 0.706055ZM16.7143 9.69783C16.7143 11.1677 15.5232 12.3632 14.0592 12.3632H3.94081C2.47681 12.3632 1.28572 11.1673 1.28572 9.69783V4.05714C1.28572 2.58765 2.47681 1.39177 3.94081 1.39177H14.0592C15.5232 1.39177 16.7143 2.58765 16.7143 4.05714V9.69783Z"/>
        <path d="M12.0375 6.75398L7.28724 3.9717C7.18164 3.90998 7.05033 3.90895 6.9437 3.96998C6.83707 4.03101 6.77124 4.1445 6.77124 4.26758V9.83181C6.77124 9.95455 6.83707 10.0684 6.94335 10.1294C6.99615 10.1596 7.05513 10.1747 7.1141 10.1747C7.1741 10.1747 7.23375 10.1589 7.28724 10.1277L12.0375 7.34609C12.1424 7.28472 12.2072 7.17192 12.2072 7.05021C12.2072 6.9285 12.1428 6.81535 12.0375 6.75398ZM7.45695 9.23352V4.86552L11.1859 7.04987L7.45695 9.23352Z"/>
    </symbol>
    <symbol viewBox="0 0 14 14" id="header-whatsapp">
        <path d="M0.600189 13.4061L1.49663 10.2223C0.920164 9.24294 0.616654 8.12869 0.616654 6.98404C0.616654 3.45961 3.48398 0.592285 7.0084 0.592285C10.5328 0.592285 13.4001 3.45961 13.4001 6.98404C13.4001 10.5085 10.5328 13.3758 7.0084 13.3758C5.91022 13.3758 4.83488 13.0947 3.88359 12.5609L0.600189 13.4061ZM4.05145 11.3981L4.24709 11.5175C5.07651 12.0239 6.03137 12.2915 7.0084 12.2915C9.93496 12.2915 12.3159 9.9106 12.3159 6.98404C12.3159 4.05748 9.93496 1.67654 7.0084 1.67654C4.08184 1.67654 1.70091 4.05748 1.70091 6.98404C1.70091 8.00376 1.99072 8.994 2.53895 9.84771L2.67071 10.0529L2.15449 11.8864L4.05145 11.3981Z"/>
        <path d="M5.21278 4.00871L4.79803 3.9861C4.66776 3.97899 4.53998 4.02253 4.44151 4.10806C4.24044 4.28267 3.91894 4.62023 3.82019 5.06012C3.67294 5.71601 3.90051 6.51916 4.4895 7.32231C5.07849 8.12546 6.17612 9.4105 8.11705 9.95933C8.7425 10.1362 9.23451 10.017 9.61412 9.77412C9.91478 9.58181 10.122 9.27312 10.1967 8.92415L10.2629 8.61486C10.284 8.51655 10.2341 8.4168 10.1428 8.37472L8.74106 7.72862C8.65006 7.6867 8.54216 7.7132 8.48096 7.79251L7.93068 8.50587C7.88911 8.55976 7.81796 8.58113 7.7537 8.55856C7.37687 8.42612 6.11455 7.89744 5.42192 6.56325C5.39188 6.50538 5.39935 6.43515 5.44196 6.3858L5.96786 5.77741C6.02159 5.71529 6.03516 5.62794 6.00288 5.55245L5.39867 4.13886C5.3665 4.06361 5.29442 4.01317 5.21278 4.00871Z"/>
    </symbol>
    <symbol viewBox="0 0 14 14" id="header-viber">
        <path d="M13.2844 3.46984L13.2805 3.45414C12.9631 2.17088 11.532 0.793863 10.2178 0.507385L10.2029 0.504333C8.07725 0.0988162 5.92191 0.0988162 3.79665 0.504333L3.78139 0.507385C2.46761 0.793863 1.03653 2.17088 0.718652 3.45414L0.715164 3.46984C0.322729 5.26196 0.322729 7.07937 0.715164 8.87149L0.718652 8.88719C1.02296 10.1157 2.34748 11.4294 3.61265 11.7907V13.2232C3.61265 13.7417 4.24447 13.9963 4.60376 13.6222L6.05512 12.1135C6.3699 12.1311 6.68485 12.141 6.9998 12.141C8.06984 12.141 9.14032 12.0398 10.2029 11.837L10.2178 11.834C11.532 11.5475 12.9631 10.1705 13.2805 8.88723L13.2844 8.87154C13.6769 7.07937 13.6769 5.26196 13.2844 3.46984ZM12.1359 8.61161C11.924 9.44881 10.8374 10.4896 9.97402 10.6819C8.84377 10.8969 7.70457 10.9887 6.56651 10.9572C6.54388 10.9566 6.52212 10.9654 6.50633 10.9816C6.34482 11.1474 5.44663 12.0694 5.44663 12.0694L4.31946 13.2262C4.23705 13.3121 4.09229 13.2537 4.09229 13.1351V10.7621C4.09229 10.7229 4.06429 10.6896 4.02579 10.682C4.02557 10.682 4.02536 10.6819 4.02514 10.6819C3.16178 10.4896 2.07561 9.44876 1.86326 8.61157C1.51006 6.99168 1.51006 5.34956 1.86326 3.72967C2.07561 2.89248 3.16178 1.85165 4.02514 1.65936C5.99909 1.28393 8.00051 1.28393 9.97402 1.65936C10.8378 1.85165 11.924 2.89248 12.1359 3.72967C12.4895 5.3496 12.4895 6.99173 12.1359 8.61161Z"/>
        <path d="M8.87762 9.7063C8.74489 9.66601 8.6184 9.63893 8.50093 9.59018C7.28368 9.08516 6.16341 8.43363 5.27602 7.43488C4.77139 6.86694 4.37643 6.22575 4.04255 5.54718C3.88423 5.22538 3.7508 4.89098 3.6148 4.55877C3.49079 4.25581 3.67344 3.94282 3.86578 3.71455C4.04626 3.50032 4.27849 3.33637 4.53 3.21555C4.72631 3.12123 4.91995 3.17561 5.06332 3.342C5.37326 3.70173 5.65795 4.07986 5.88848 4.49685C6.03024 4.75333 5.99135 5.06684 5.73443 5.24139C5.67199 5.28381 5.61509 5.33361 5.55692 5.38153C5.5059 5.42352 5.45789 5.46595 5.42292 5.52281C5.359 5.62684 5.35595 5.74955 5.39711 5.86266C5.71394 6.73334 6.24795 7.41038 7.12431 7.77504C7.26454 7.83338 7.40538 7.90131 7.56693 7.88248C7.83749 7.85086 7.92509 7.5541 8.11468 7.39904C8.3 7.24752 8.53681 7.24551 8.73643 7.37183C8.9361 7.4982 9.12965 7.63385 9.32203 7.77094C9.51088 7.9055 9.6989 8.03714 9.8731 8.19054C10.0406 8.33805 10.0983 8.53157 10.004 8.73175C9.83129 9.09837 9.58004 9.40338 9.2176 9.59807C9.11527 9.65297 8.99304 9.67076 8.87762 9.7063C8.74489 9.66597 8.99304 9.67076 8.87762 9.7063Z"/>
        <path d="M7.00306 2.79607C8.59526 2.84068 9.90298 3.89733 10.1832 5.47144C10.231 5.73965 10.248 6.01387 10.2692 6.28609C10.2781 6.40059 10.2133 6.50939 10.0897 6.51087C9.96211 6.5124 9.90468 6.40561 9.8964 6.29115C9.88 6.06458 9.86862 5.83701 9.8374 5.61232C9.67258 4.42625 8.72681 3.44499 7.54623 3.23442C7.36859 3.20272 7.18676 3.1944 7.00681 3.17551C6.89304 3.16357 6.74405 3.15668 6.71885 3.01527C6.6977 2.89671 6.79777 2.80231 6.91066 2.79625C6.94136 2.79455 6.97223 2.79594 7.00306 2.79607C8.59526 2.84068 6.97223 2.79594 7.00306 2.79607Z"/>
        <path d="M9.42319 5.93386C9.42057 5.95374 9.41917 6.00049 9.40753 6.04453C9.36528 6.20438 9.12293 6.22439 9.06712 6.06306C9.05059 6.01518 9.0481 5.96072 9.04802 5.90918C9.04745 5.57195 8.97415 5.23506 8.8041 4.94165C8.62929 4.64009 8.36222 4.38657 8.04897 4.23318C7.85955 4.14043 7.6547 4.08279 7.4471 4.04843C7.35636 4.03343 7.26466 4.02431 7.17349 4.01162C7.063 3.99627 7.004 3.92585 7.00923 3.81697C7.01412 3.71494 7.08868 3.64156 7.19987 3.64784C7.56527 3.66859 7.9182 3.74756 8.24305 3.91958C8.90365 4.26941 9.28099 4.82161 9.39114 5.55895C9.39611 5.59235 9.40413 5.62545 9.40666 5.65898C9.41289 5.74178 9.41682 5.82468 9.42319 5.93386C9.42057 5.95374 9.41682 5.82468 9.42319 5.93386Z"/>
        <path d="M8.4322 5.8961C8.29899 5.8985 8.22769 5.82476 8.21396 5.70263C8.20441 5.61747 8.19687 5.53118 8.17655 5.44833C8.13652 5.28517 8.04979 5.13395 7.91252 5.03396C7.84773 4.98674 7.7743 4.95234 7.69738 4.93014C7.59967 4.90193 7.4982 4.90969 7.4007 4.8858C7.29483 4.85985 7.23627 4.77413 7.25293 4.6748C7.26806 4.58441 7.35601 4.51386 7.45477 4.52101C8.07207 4.56557 8.51326 4.88471 8.57622 5.61141C8.58067 5.66269 8.5859 5.71689 8.57452 5.76594C8.55503 5.84992 8.49285 5.892 8.4322 5.8961C8.29899 5.8985 8.49285 5.892 8.4322 5.8961Z"/>
    </symbol>
    <symbol viewBox="0 0 14 13" id="header-telegram">
        <path d="M13.1015 0.991356L0.297036 5.98111C-0.117703 6.14275 -0.0925771 6.7379 0.334346 6.86395L3.58809 7.82477L4.80239 11.6779C4.92924 12.0803 5.43927 12.2024 5.73451 11.9009L7.41678 10.1832L10.7175 12.606C11.1215 12.9025 11.6968 12.6823 11.7993 12.1918L13.9855 1.73995C14.0925 1.22799 13.5888 0.801445 13.1015 0.991356ZM11.4961 3.31088L5.54855 8.57034C5.48927 8.62277 5.45154 8.69533 5.44271 8.77399L5.21373 10.8096C5.20625 10.876 5.11335 10.8847 5.09352 10.821L4.1514 7.78519C4.10825 7.6462 4.16451 7.49562 4.28816 7.41894L11.3117 3.0629C11.4732 2.96266 11.6385 3.185 11.4961 3.31088Z"/>
    </symbol>
    <symbol viewBox="0 0 18 18" id="header-search">
        <path d="M17.7296 16.4242C18.0901 16.7847 18.0901 17.3692 17.7296 17.7296C17.3692 18.0901 16.7847 18.0901 16.4242 17.7296L13.1934 14.4989C12.833 14.1384 12.833 13.5539 13.1934 13.1934C13.5539 12.833 14.1384 12.833 14.4989 13.1934L17.7296 16.4242ZM7.38461 14.7692C3.3062 14.7692 0 11.463 0 7.38461C0 3.3062 3.3062 0 7.38461 0C11.463 0 14.7692 3.3062 14.7692 7.38461C14.7692 11.463 11.463 14.7692 7.38461 14.7692ZM7.38461 12.9231C10.4434 12.9231 12.9231 10.4434 12.9231 7.38461C12.9231 4.32581 10.4434 1.84615 7.38461 1.84615C4.32581 1.84615 1.84615 4.32581 1.84615 7.38461C1.84615 10.4434 4.32581 12.9231 7.38461 12.9231Z" fill="#404040"/>
    </symbol>

    <symbol viewBox="0 0 32 19" id="intro-prev">
        <path d="M8.77638 0.723633L10.2018 2.14908L3.85885 8.49206H32V10.508H3.85885L10.2018 16.8509L8.77638 18.2763L1.90735e-06 9.49994L8.77638 0.723633Z" fill="white"/>
    </symbol>

    <symbol viewBox="0 0 32 19" id="intro-next">
        <path d="M23.2236 0.723633L21.7982 2.14908L28.1412 8.49206H0V10.508H28.1412L21.7982 16.8509L23.2236 18.2763L32 9.49994L23.2236 0.723633Z" fill="white"/>
    </symbol>

    <symbol viewBox="0 0 45 45" id="special-offer-link">
        <path opacity="0.5" d="M22.3565 44.0859C34.2046 44.0859 44.0024 34.288 44.0024 22.44C44.0024 10.5919 34.2046 0.794042 22.3349 0.794042C10.4868 0.794042 0.710566 10.5919 0.710566 22.44C0.710566 34.288 10.5084 44.0859 22.3565 44.0859ZM22.3565 41.3019C11.9112 41.3019 3.51612 32.8853 3.51612 22.44C3.51612 11.9947 11.9112 3.5996 22.3349 3.5996C32.7802 3.5996 41.1969 11.9947 41.2184 22.44C41.2184 32.8853 32.8018 41.3019 22.3565 41.3019ZM18.3856 30.5329L30.2336 23.4759C31.0321 23.0011 31.0105 21.9004 30.2336 21.4257L18.3856 14.3254C17.5655 13.8507 16.5296 14.2391 16.5296 15.1239V29.756C16.5296 30.6408 17.5223 31.0509 18.3856 30.5329Z" fill="white"/>
    </symbol>

    <symbol viewBox="0 0 26 30" id="footer-order">
        <path d="M3.08329 25.2315H3.09805L12.957 25.1822L11.5196 29.4943C11.4735 29.6323 11.5093 29.7844 11.6124 29.8875C11.7152 29.9903 11.8675 30.0264 12.0056 29.9803L16.5603 28.4621C16.5631 28.4611 16.5656 28.4598 16.5681 28.4588C16.5786 28.4551 16.5889 28.4511 16.5989 28.4463C16.6031 28.4443 16.6074 28.4426 16.6116 28.4403C16.6224 28.4351 16.6326 28.4291 16.6426 28.4228C16.6451 28.4213 16.6479 28.4198 16.6501 28.4183C16.6624 28.4103 16.6742 28.4015 16.6854 28.392C16.6884 28.3895 16.6912 28.3868 16.6942 28.384C16.6997 28.3793 16.7054 28.3745 16.7107 28.3693L25.213 19.8667C25.3631 19.7166 25.3631 19.4735 25.213 19.3234L22.1765 16.2869C22.0264 16.1368 21.7832 16.1368 21.6332 16.2869L19.3156 18.6041L19.2679 7.0456L19.2674 6.93553C19.2669 6.83346 19.2258 6.73565 19.1533 6.66385L12.5355 0.12333C12.4724 0.06129 12.3899 0.0227649 12.3018 0.0145094L12.1642 0.00175115C12.1515 0.000500327 12.1392 0.000500327 12.1257 0L2.97672 0.0440287C1.3249 0.052034 -0.00747332 1.39741 3.15495e-05 3.04899L0.0923418 22.2548C0.102098 23.9004 1.43772 25.2297 3.08329 25.2315ZM13.9459 25.0611L20.2347 18.7723L22.7279 21.2654L16.439 27.5542L13.9459 25.0611ZM12.4917 29.0084L13.5701 25.7726L14.6488 26.8513L15.7275 27.9295L12.4917 29.0084ZM21.9048 17.1022L24.398 19.5953L23.2712 20.722L20.7781 18.2289L21.9048 17.1022ZM17.9663 6.57154L14.8885 6.58655C13.6609 6.5923 12.661 5.60191 12.655 4.37436L12.6403 1.30735L17.9663 6.57154ZM1.41195 1.47046C1.82597 1.05019 2.39084 0.813031 2.98048 0.81178L11.8693 0.769502L11.8865 4.37811C11.8945 6.02443 13.2312 7.3548 14.8772 7.35505H14.892L18.5006 7.33779L18.5504 19.3701L13.5088 24.4117L3.09405 24.4635C1.8665 24.4692 0.866597 23.4786 0.860843 22.251L0.768533 3.04524C0.76403 2.45535 0.995932 1.88848 1.41195 1.47046Z" fill="white"/>
    </symbol>

    <symbol viewBox="0 0 30 26" id="footer-pay">
        <path d="M27.7895 0.499756H4.42403C3.20381 0.501185 2.21487 1.48989 2.21344 2.71035V12.3566C0.0309454 14.5827 -0.603342 17.9009 0.604734 20.7748C1.81257 23.6487 4.62673 25.5175 7.74434 25.5159C11.8306 25.5159 15.1876 22.3344 15.4692 18.3186H27.7895C29.0098 18.3172 29.9985 17.3283 29.9999 16.1083V2.71035C29.9985 1.49013 29.0098 0.501185 27.7895 0.499756V0.499756ZM7.74434 24.7842C3.87144 24.7842 0.731687 21.6444 0.731687 17.7715C0.731687 13.8984 3.87144 10.7589 7.74458 10.7589C11.6175 10.7589 14.7572 13.8986 14.7572 17.7715C14.7527 21.6427 11.6156 24.7799 7.74434 24.7842ZM29.2682 16.1083C29.2675 16.9245 28.6058 17.5862 27.7895 17.5872H15.4866C15.4182 14.6525 13.6956 12.0089 11.0384 10.761C8.38148 9.5134 5.24696 9.87616 2.94514 11.6978V2.71035C2.94609 1.89385 3.60777 1.23241 4.42403 1.23146H27.7895C28.6058 1.23241 29.2675 1.89385 29.2682 2.71035V16.1083Z" fill="white"/>
        <path d="M23.5008 10.7054C23.09 10.7049 22.6843 10.7976 22.3142 10.976C21.1628 10.4225 19.7818 10.7383 18.9853 11.7372C18.1891 12.7362 18.1891 14.1529 18.9853 15.1519C19.7818 16.1508 21.1628 16.4667 22.3142 15.9131C23.3293 16.4012 24.5398 16.2182 25.3651 15.4518C26.1904 14.6853 26.4624 13.4917 26.0506 12.4432C25.6388 11.395 24.6272 10.7057 23.5008 10.7057V10.7054ZM21.1276 15.452C20.3546 15.453 19.6496 15.0102 19.3152 14.3132C18.9806 13.6165 19.0758 12.7893 19.5603 12.1869C20.0445 11.5843 20.8317 11.3135 21.5842 11.4905C21.0582 12.0047 20.7619 12.7093 20.7619 13.4448C20.7619 14.1803 21.0582 14.8846 21.5842 15.3989C21.4346 15.4341 21.2814 15.4518 21.1276 15.452ZM23.135 13.4446C23.1348 14.0839 22.8301 14.6848 22.3142 15.0623C21.7983 14.6848 21.4934 14.0839 21.4934 13.4446C21.4934 12.8053 21.7983 12.2043 22.3142 11.8268C22.8299 12.2043 23.1348 12.8053 23.135 13.4446ZM23.5008 15.452C23.3472 15.4518 23.1938 15.4341 23.0442 15.3989C23.5702 14.8846 23.8667 14.1801 23.8667 13.4446C23.8667 12.709 23.5702 12.0045 23.0442 11.4905C23.7962 11.3147 24.5824 11.586 25.066 12.1881C25.5497 12.7903 25.6448 13.6163 25.3111 14.3128C24.9771 15.0092 24.2733 15.4522 23.5008 15.452Z" fill="white"/>
        <path d="M4.98664 4.57765H14.7482C14.9504 4.57765 15.1141 4.41378 15.1141 4.2118C15.1141 4.00982 14.9504 3.84595 14.7482 3.84595H4.98664C4.78442 3.84595 4.62079 4.00982 4.62079 4.2118C4.62079 4.41378 4.78442 4.57765 4.98664 4.57765Z" fill="white"/>
        <path d="M17.1315 3.84595H16.0742C15.8722 3.84595 15.7083 4.00982 15.7083 4.2118C15.7083 4.41378 15.8722 4.57765 16.0742 4.57765H17.1315C17.3335 4.57765 17.4973 4.41378 17.4973 4.2118C17.4973 4.00982 17.3335 3.84595 17.1315 3.84595Z" fill="white"/>
        <path d="M5.44253 5.69067H4.98664C4.78442 5.69067 4.62079 5.85431 4.62079 6.05652C4.62079 6.2585 4.78442 6.42237 4.98664 6.42237H5.44253C5.64475 6.42237 5.80838 6.2585 5.80838 6.05652C5.80838 5.85431 5.64475 5.69067 5.44253 5.69067Z" fill="white"/>
        <path d="M12.9036 5.69067H6.80818C6.60596 5.69067 6.44232 5.85431 6.44232 6.05652C6.44232 6.2585 6.60596 6.42237 6.80818 6.42237H12.9036C13.1056 6.42237 13.2694 6.2585 13.2694 6.05652C13.2694 5.85431 13.1056 5.69067 12.9036 5.69067Z" fill="white"/>
        <path d="M17.1315 5.69067H14.2297C14.0275 5.69067 13.8638 5.85431 13.8638 6.05652C13.8638 6.2585 14.0275 6.42237 14.2297 6.42237H17.1315C17.3335 6.42237 17.4974 6.2585 17.4974 6.05652C17.4974 5.85431 17.3335 5.69067 17.1315 5.69067Z" fill="white"/>
        <path d="M10.8671 15.5799L6.45185 19.172L4.66902 17.0843C4.53731 16.9317 4.30746 16.9143 4.1543 17.045C4.00115 17.1758 3.98257 17.4056 4.11262 17.5595L6.12744 19.9187C6.2563 20.07 6.48233 20.0905 6.63644 19.9649L11.3292 16.1475C11.4859 16.0199 11.5097 15.7895 11.3821 15.6328C11.2546 15.4761 11.0243 15.4523 10.8673 15.5799H10.8671Z" fill="white"/>
    </symbol>

    <symbol viewBox="0 0 22 29" id="footer-doc">
    
        <path d="M21.6754 4.49133C21.6036 4.32269 21.5028 4.16798 21.3774 4.0343L18.0883 0.520312C17.9451 0.36821 17.7741 0.245039 17.5844 0.1575C17.5778 0.154277 17.5712 0.151172 17.5644 0.148359C17.3469 0.0506662 17.1112 0.000105746 16.8727 0H1.63477C0.733477 0 0 0.704941 0 1.57143V27.2567C0 28.1232 0.733477 28.8281 1.63477 28.8281H20.1621C21.0636 28.8281 21.7969 28.1232 21.7969 27.2567V5.08523C21.7967 4.88164 21.7556 4.68016 21.676 4.49279L21.6754 4.49133ZM20.7004 4.33975L18.1352 4.5917C17.9903 4.60561 17.8442 4.58632 17.708 4.53528C17.5717 4.48423 17.4489 4.40279 17.3488 4.29715C17.2625 4.20782 17.1976 4.09997 17.1592 3.9818C17.1209 3.86363 17.1099 3.73826 17.1273 3.61523L17.6594 1.09113L20.7004 4.33975ZM21.0938 27.2567C21.0938 27.7355 20.6757 28.125 20.1621 28.125H1.63477C1.12096 28.125 0.703125 27.7355 0.703125 27.2567V1.57143C0.703125 1.09266 1.12119 0.703125 1.63477 0.703125H16.8727C16.9221 0.703521 16.9713 0.707595 17.02 0.715312L16.437 3.48094C16.4357 3.48756 16.4344 3.49418 16.4334 3.50086C16.399 3.73026 16.4174 3.96449 16.487 4.18575C16.5567 4.40701 16.6759 4.60949 16.8355 4.77779C16.9912 4.94354 17.1794 5.07533 17.3884 5.1649C17.5974 5.25448 17.8226 5.29991 18.05 5.29834C18.0993 5.29834 18.1491 5.29629 18.1991 5.29207L21.09 5.00801C21.0925 5.03363 21.0937 5.05939 21.0938 5.08529V27.2567Z" fill="white"/>
        <path d="M2.42798 4.30273H13.3524C13.4457 4.30273 13.5351 4.26569 13.601 4.19976C13.667 4.13383 13.704 4.04441 13.704 3.95117C13.704 3.85793 13.667 3.76851 13.601 3.70258C13.5351 3.63665 13.4457 3.59961 13.3524 3.59961H2.42798C2.33474 3.59961 2.24532 3.63665 2.17939 3.70258C2.11346 3.76851 2.07642 3.85793 2.07642 3.95117C2.07642 4.04441 2.11346 4.13383 2.17939 4.19976C2.24532 4.26569 2.33474 4.30273 2.42798 4.30273Z" fill="white"/>
        <path d="M2.42798 7.14062H13.3524C13.4457 7.14062 13.5351 7.10359 13.601 7.03765C13.667 6.97172 13.704 6.8823 13.704 6.78906C13.704 6.69582 13.667 6.6064 13.601 6.54047C13.5351 6.47454 13.4457 6.4375 13.3524 6.4375H2.42798C2.33474 6.4375 2.24532 6.47454 2.17939 6.54047C2.11346 6.6064 2.07642 6.69582 2.07642 6.78906C2.07642 6.8823 2.11346 6.97172 2.17939 7.03765C2.24532 7.10359 2.33474 7.14062 2.42798 7.14062Z" fill="white"/>
        <path d="M19.4974 9.27441H2.42798C2.33474 9.27441 2.24532 9.31145 2.17939 9.37738C2.11346 9.44331 2.07642 9.53274 2.07642 9.62598C2.07642 9.71922 2.11346 9.80864 2.17939 9.87457C2.24532 9.9405 2.33474 9.97754 2.42798 9.97754H19.4974C19.5906 9.97754 19.6801 9.9405 19.746 9.87457C19.8119 9.80864 19.849 9.71922 19.849 9.62598C19.849 9.53274 19.8119 9.44331 19.746 9.37738C19.6801 9.31145 19.5906 9.27441 19.4974 9.27441Z" fill="white"/>
        <path d="M19.4974 12.1123H2.42798C2.33474 12.1123 2.24532 12.1493 2.17939 12.2153C2.11346 12.2812 2.07642 12.3706 2.07642 12.4639C2.07642 12.5571 2.11346 12.6465 2.17939 12.7125C2.24532 12.7784 2.33474 12.8154 2.42798 12.8154H19.4974C19.5906 12.8154 19.6801 12.7784 19.746 12.7125C19.8119 12.6465 19.849 12.5571 19.849 12.4639C19.849 12.3706 19.8119 12.2812 19.746 12.2153C19.6801 12.1493 19.5906 12.1123 19.4974 12.1123Z" fill="white"/>
        <path d="M19.4974 14.9492H2.42798C2.33474 14.9492 2.24532 14.9863 2.17939 15.0522C2.11346 15.1181 2.07642 15.2075 2.07642 15.3008C2.07642 15.394 2.11346 15.4834 2.17939 15.5494C2.24532 15.6153 2.33474 15.6523 2.42798 15.6523H19.4974C19.5906 15.6523 19.6801 15.6153 19.746 15.5494C19.8119 15.4834 19.849 15.394 19.849 15.3008C19.849 15.2075 19.8119 15.1181 19.746 15.0522C19.6801 14.9863 19.5906 14.9492 19.4974 14.9492Z" fill="white"/>
        <path d="M19.4974 17.7871H2.42798C2.33474 17.7871 2.24532 17.8241 2.17939 17.8901C2.11346 17.956 2.07642 18.0454 2.07642 18.1387C2.07642 18.2319 2.11346 18.3213 2.17939 18.3873C2.24532 18.4532 2.33474 18.4902 2.42798 18.4902H19.4974C19.5906 18.4902 19.6801 18.4532 19.746 18.3873C19.8119 18.3213 19.849 18.2319 19.849 18.1387C19.849 18.0454 19.8119 17.956 19.746 17.8901C19.6801 17.8241 19.5906 17.7871 19.4974 17.7871Z" fill="white"/>
        <path d="M19.4974 20.5986H2.42798C2.33474 20.5986 2.24532 20.6357 2.17939 20.7016C2.11346 20.7675 2.07642 20.857 2.07642 20.9502C2.07642 21.0434 2.11346 21.1329 2.17939 21.1988C2.24532 21.2647 2.33474 21.3018 2.42798 21.3018H19.4974C19.5906 21.3018 19.6801 21.2647 19.746 21.1988C19.8119 21.1329 19.849 21.0434 19.849 20.9502C19.849 20.857 19.8119 20.7675 19.746 20.7016C19.6801 20.6357 19.5906 20.5986 19.4974 20.5986Z" fill="white"/>
        <path d="M7.93347 25.0415C7.69616 25.1816 7.42485 25.2536 7.14931 25.2496C6.9232 25.2472 6.70085 25.1914 6.50039 25.0867C6.42192 25.0451 6.34945 24.993 6.28494 24.9319C6.17336 24.8152 6.0212 24.7458 5.8599 24.738C5.51771 24.7276 5.32798 24.98 5.18994 25.1638C5.10072 25.2986 4.98699 25.4155 4.85466 25.5084C4.58337 25.6793 4.16443 25.7153 3.90087 25.5904C3.80573 25.5431 3.72215 25.4755 3.65607 25.3923C3.94555 25.3518 4.21962 25.237 4.45159 25.0592C4.67029 24.8855 4.84609 24.6638 4.9654 24.4113C5.11921 24.0778 5.11775 23.7603 4.96072 23.5173C4.82841 23.3123 4.58917 23.1719 4.28689 23.1219C3.88318 23.0549 3.43898 23.1567 3.15515 23.3811C2.83874 23.6312 2.6656 24.0666 2.67351 24.5714C2.66583 24.5682 2.65816 24.565 2.65054 24.5617C2.56483 24.5249 2.46805 24.5237 2.38146 24.5583C2.29488 24.593 2.22559 24.6606 2.18885 24.7463C2.1521 24.832 2.15091 24.9288 2.18553 25.0153C2.22015 25.1019 2.28774 25.1712 2.37345 25.2079C2.52093 25.2714 2.67391 25.3212 2.83048 25.3568C2.99027 25.7522 3.26167 26.0658 3.59941 26.2257C3.8118 26.3224 4.04288 26.3711 4.27622 26.3683C4.61239 26.37 4.9424 26.2782 5.22943 26.1031C5.435 25.9656 5.61238 25.7901 5.75203 25.5859C5.77833 25.5508 5.81062 25.508 5.83781 25.4755C5.93783 25.5657 6.04857 25.6431 6.16751 25.7062C6.46566 25.8631 6.79664 25.9476 7.13355 25.9526C7.5387 25.9593 7.93788 25.8543 8.28726 25.649C8.32716 25.6258 8.36208 25.5949 8.39004 25.5582C8.418 25.5214 8.43845 25.4795 8.45022 25.4349C8.46199 25.3903 8.46486 25.3437 8.45865 25.298C8.45244 25.2522 8.43728 25.2081 8.41403 25.1683C8.39079 25.1284 8.35991 25.0934 8.32317 25.0655C8.28643 25.0375 8.24453 25.0171 8.19989 25.0053C8.15524 24.9935 8.10872 24.9907 8.06297 24.9969C8.01721 25.0031 7.97313 25.0182 7.93324 25.0415H7.93347ZM3.38706 24.7134L3.38636 24.7075C3.34757 24.3658 3.42808 24.0616 3.59144 23.9324C3.72249 23.8444 3.87783 23.7996 4.03564 23.8044C4.08135 23.8043 4.12699 23.808 4.1721 23.8153C4.30458 23.8373 4.3596 23.8827 4.36997 23.8984C4.40513 23.9532 4.31238 24.2747 4.01782 24.5056C3.83535 24.6407 3.61432 24.7135 3.3873 24.7135L3.38706 24.7134Z" fill="white"/>
    </symbol>

    <symbol viewBox="0 0 40 40" id="footer-inst">
        
        <path d="M20 39.5C9.23045 39.5 0.5 30.7696 0.5 20C0.5 9.23045 9.23045 0.5 20 0.5C30.7696 0.5 39.5 9.23045 39.5 20C39.5 30.7696 30.7696 39.5 20 39.5Z" fill="#337376" stroke="white"/>
        <path d="M24.1276 11H15.8725C13.1857 11 11 13.1857 11 15.8724V24.1277C11 26.8143 13.1857 29 15.8725 29H24.1277C26.8143 29 29.0001 26.8143 29.0001 24.1277V15.8724C29.0001 13.1857 26.8143 11 24.1276 11V11ZM27.9448 24.1277C27.9448 26.2324 26.2325 27.9448 24.1276 27.9448H15.8725C13.7676 27.9448 12.0553 26.2324 12.0553 24.1277V15.8724C12.0553 13.7676 13.7676 12.0552 15.8725 12.0552H24.1277C26.2325 12.0552 27.9448 13.7676 27.9448 15.8724V24.1277Z" fill="white"/>
        <path d="M19.9998 15.0781C17.2859 15.0781 15.0781 17.286 15.0781 19.9999C15.0781 22.7138 17.2859 24.9216 19.9998 24.9216C22.7137 24.9216 24.9216 22.7138 24.9216 19.9999C24.9216 17.286 22.7137 15.0781 19.9998 15.0781ZM19.9998 23.8664C17.8679 23.8664 16.1333 22.1319 16.1333 19.9999C16.1333 17.868 17.8679 16.1334 19.9998 16.1334C22.1319 16.1334 23.8663 17.868 23.8663 19.9999C23.8663 22.1319 22.1319 23.8664 19.9998 23.8664Z" fill="white"/>
        <path d="M25.0394 13.3306C24.2374 13.3306 23.5851 13.983 23.5851 14.7849C23.5851 15.5869 24.2374 16.2393 25.0394 16.2393C25.8414 16.2393 26.4939 15.5869 26.4939 14.7849C26.4939 13.9829 25.8414 13.3306 25.0394 13.3306ZM25.0394 15.184C24.8194 15.184 24.6403 15.0049 24.6403 14.7849C24.6403 14.5647 24.8194 14.3858 25.0394 14.3858C25.2595 14.3858 25.4386 14.5647 25.4386 14.7849C25.4386 15.0049 25.2595 15.184 25.0394 15.184Z" fill="white"/>



    </symbol>

    <symbol viewBox="0 0 40 40" id="footer-fb">
        
        <path d="M20 39.5C9.23045 39.5 0.5 30.7696 0.5 20C0.5 9.23045 9.23045 0.5 20 0.5C30.7696 0.5 39.5 9.23045 39.5 20C39.5 30.7696 30.7696 39.5 20 39.5Z" fill="#337376" stroke="white"/>
        <path d="M21.1034 30H17.8587C17.3167 30 16.8758 29.5648 16.8758 29.0298V21.8057H14.9828C14.4409 21.8057 14 21.3704 14 20.8356V17.74C14 17.205 14.4409 16.7699 14.9828 16.7699H16.8758V15.2197C16.8758 13.6827 17.3648 12.375 18.2896 11.4383C19.2187 10.4973 20.517 10 22.0443 10L24.5189 10.004C25.0599 10.0049 25.5 10.4401 25.5 10.9741V13.8483C25.5 14.3832 25.0593 14.8184 24.5175 14.8184L22.8514 14.819C22.3433 14.819 22.2139 14.9196 22.1862 14.9504C22.1406 15.0015 22.0863 15.146 22.0863 15.545V16.7697H24.3923C24.5658 16.7697 24.734 16.812 24.8786 16.8916C25.1904 17.0636 25.3842 17.3888 25.3842 17.7402L25.383 20.8357C25.383 21.3704 24.9421 21.8056 24.4001 21.8056H22.0863V29.0298C22.0863 29.5648 21.6453 30 21.1034 30ZM18.0636 28.8275H20.8984V21.2808C20.8984 20.9236 21.1929 20.6331 21.5546 20.6331H24.1952L24.1962 17.9424H21.5544C21.1927 17.9424 20.8984 17.6518 20.8984 17.2946V15.545C20.8984 15.087 20.9455 14.566 21.2958 14.1745C21.7191 13.7012 22.3861 13.6465 22.8511 13.6465L24.3122 13.6459V11.1761L22.0434 11.1725C19.5889 11.1725 18.0636 12.7234 18.0636 15.2197V17.2946C18.0636 17.6517 17.7693 17.9424 17.4076 17.9424H15.1878V20.6331H17.4076C17.7693 20.6331 18.0636 20.9236 18.0636 21.2808V28.8275ZM24.5165 11.1765H24.5167H24.5165Z" fill="white"/>



    </symbol>

    <symbol viewBox="0 0 40 40" id="footer-vk">
        
        <path d="M20 39.5C9.23045 39.5 0.5 30.7696 0.5 20C0.5 9.23045 9.23045 0.5 20 0.5C30.7696 0.5 39.5 9.23045 39.5 20C39.5 30.7696 30.7696 39.5 20 39.5Z" fill="#337376" stroke="white"/>
        <g clip-path="url(#clip0)">
        <path d="M20.1329 26.875C23.3156 26.875 22.1807 24.8602 22.4264 24.2808C22.4227 23.8482 22.4191 23.432 22.4337 23.179C22.6354 23.2358 23.1112 23.4769 24.0938 24.4321C25.6109 25.9629 25.9987 26.875 27.2242 26.875H29.4802C30.1952 26.875 30.5673 26.5789 30.7534 26.3305C30.9331 26.0903 31.1091 25.6687 30.9166 25.0123C30.4133 23.432 27.4782 20.7031 27.2957 20.4153C27.3232 20.3621 27.3672 20.2915 27.3902 20.2548H27.3883C27.9677 19.4894 30.1787 16.1766 30.5041 14.8511C30.505 14.8492 30.5059 14.8465 30.5059 14.8438C30.6819 14.2387 30.5206 13.8464 30.3537 13.6246C30.1026 13.2928 29.7029 13.125 29.163 13.125H26.9071C26.1517 13.125 25.5788 13.5054 25.2892 14.1993C24.8042 15.4323 23.4421 17.9678 22.4209 18.8652C22.3897 17.5938 22.4108 16.623 22.4273 15.9016C22.4603 14.4945 22.5667 13.125 21.1064 13.125H17.5607C16.6459 13.125 15.7705 14.1242 16.7183 15.3103C17.547 16.3498 17.0162 16.9292 17.195 19.813C16.4983 19.0659 15.259 17.0483 14.3827 14.4698C14.137 13.7722 13.7648 13.1259 12.7171 13.1259H10.4612C9.54633 13.1259 9 13.6246 9 14.4597C9 16.3352 13.1516 26.875 20.1329 26.875ZM12.7171 14.5009C12.916 14.5009 12.9362 14.5009 13.0837 14.9198C13.9812 17.5626 15.9942 21.4731 17.4645 21.4731C18.5691 21.4731 18.5691 20.341 18.5691 19.9147L18.5682 16.5213C18.5077 15.3983 18.0988 14.8392 17.8302 14.5L21.0459 14.5037C21.0477 14.5193 21.0276 18.2574 21.0551 19.1631C21.0551 20.4492 22.0762 21.1862 23.6703 19.5728C25.3524 17.6744 26.5157 14.8364 26.5624 14.7209C26.6312 14.5559 26.6907 14.5 26.9071 14.5H29.163H29.1722C29.1712 14.5028 29.1712 14.5055 29.1703 14.5082C28.9641 15.4707 26.9282 18.5379 26.2471 19.4903C26.2361 19.505 26.226 19.5206 26.2159 19.5362C25.9162 20.0257 25.6723 20.5665 26.2572 21.3273H26.2581C26.3112 21.3915 26.4497 21.5418 26.6513 21.7508C27.2783 22.398 29.4288 24.6108 29.6195 25.4908C29.493 25.511 29.3555 25.4963 27.2242 25.5009C26.7705 25.5009 26.4157 24.8226 25.0618 23.4567C23.8445 22.2724 23.0543 21.7884 22.3347 21.7884C20.9377 21.7884 21.0395 22.9223 21.0523 24.2937C21.0569 25.7805 21.0477 25.3103 21.0578 25.4038C20.9762 25.4358 20.7425 25.5 20.1329 25.5C14.3167 25.5 10.529 16.2683 10.3832 14.5037C10.4337 14.4991 11.1276 14.5018 12.7171 14.5009Z" fill="white"/>
        </g>
        <defs>
        <clipPath id="clip0">
        <rect x="9" y="9" width="22" height="22" fill="white"/>
        </clipPath>
        </defs>



    </symbol>

    <symbol viewBox="0 0 40 40" id="footer-yt">
        
        <path d="M20 39.5C9.23045 39.5 0.5 30.7696 0.5 20C0.5 9.23045 9.23045 0.5 20 0.5C30.7696 0.5 39.5 9.23045 39.5 20C39.5 30.7696 30.7696 39.5 20 39.5Z" fill="#337376" stroke="white"/>
        <path d="M26.324 12.1326H13.676C11.3733 12.1326 9.50003 14.0119 9.50003 16.3214V23.3719C9.50003 25.6819 11.3733 27.5607 13.676 27.5607H26.324C28.6267 27.5607 30.5 25.6814 30.5 23.3719V16.3214C30.5 14.0119 28.6267 12.1326 26.324 12.1326ZM29.6429 23.3723C29.6429 25.2096 28.154 26.704 26.324 26.704H13.676C11.846 26.704 10.3572 25.2091 10.3572 23.3723V16.3214C10.3572 14.4846 11.846 12.9897 13.676 12.9897H26.324C28.154 12.9897 29.6429 14.4846 29.6429 16.3214V23.3723Z" fill="white"/>
        <path d="M23.7969 19.6925L17.859 16.2146C17.727 16.1375 17.5629 16.1362 17.4296 16.2125C17.2963 16.2888 17.2141 16.4306 17.2141 16.5845V23.5398C17.2141 23.6932 17.2963 23.8355 17.4292 23.9118C17.4952 23.9495 17.5689 23.9683 17.6426 23.9683C17.7176 23.9683 17.7922 23.9486 17.859 23.9096L23.7969 20.4326C23.928 20.3559 24.009 20.2149 24.009 20.0628C24.009 19.9106 23.9285 19.7692 23.7969 19.6925ZM18.0712 22.7919V17.3319L22.7323 20.0623L18.0712 22.7919Z" fill="white"/>



    </symbol>

    <symbol viewBox="0 0 40 40" id="footer-whatsapp">
        
        <path d="M20 39.5C9.23045 39.5 0.5 30.7696 0.5 20C0.5 9.23045 9.23045 0.5 20 0.5C30.7696 0.5 39.5 9.23045 39.5 20C39.5 30.7696 30.7696 39.5 20 39.5Z" fill="#337376" stroke="white"/>
        <path d="M12.0002 28.0073L13.1208 24.0275C12.4002 22.8033 12.0208 21.4105 12.0208 19.9797C12.0208 15.5741 15.605 11.99 20.0105 11.99C24.416 11.99 28.0001 15.5741 28.0001 19.9797C28.0001 24.3852 24.416 27.9694 20.0105 27.9694C18.6377 27.9694 17.2936 27.618 16.1045 26.9508L12.0002 28.0073ZM16.3143 25.4972L16.5588 25.6466C17.5956 26.2795 18.7892 26.6141 20.0105 26.6141C23.6687 26.6141 26.6448 23.6379 26.6448 19.9797C26.6448 16.3215 23.6687 13.3453 20.0105 13.3453C16.3523 13.3453 13.3761 16.3215 13.3761 19.9797C13.3761 21.2543 13.7384 22.4921 14.4237 23.5593L14.5884 23.8157L13.9431 26.1076L16.3143 25.4972Z" fill="white"/>
        <path d="M17.7659 16.2604L17.2475 16.2321C17.0847 16.2233 16.925 16.2777 16.8019 16.3846C16.5505 16.6028 16.1487 17.0248 16.0252 17.5747C15.8411 18.3945 16.1256 19.3985 16.8619 20.4024C17.5981 21.4063 18.9701 23.0126 21.3963 23.6987C22.1781 23.9197 22.7931 23.7707 23.2676 23.4672C23.6435 23.2268 23.9025 22.8409 23.9959 22.4047L24.0787 22.0181C24.105 21.8952 24.0426 21.7705 23.9284 21.7179L22.1763 20.9103C22.0626 20.8579 21.9277 20.891 21.8512 20.9902L21.1633 21.8819C21.1114 21.9492 21.0224 21.9759 20.9421 21.9477C20.4711 21.7822 18.8932 21.1213 18.0274 19.4536C17.9898 19.3812 17.9992 19.2934 18.0524 19.2318L18.7098 18.4713C18.777 18.3936 18.7939 18.2844 18.7536 18.1901L17.9983 16.4231C17.9581 16.329 17.868 16.266 17.7659 16.2604Z" fill="white"/>


    </symbol>

    <symbol viewBox="0 0 40 40" id="footer-viber">
    
        
        <path d="M20 39.5C9.23045 39.5 0.5 30.7696 0.5 20C0.5 9.23045 9.23045 0.5 20 0.5C30.7696 0.5 39.5 9.23045 39.5 20C39.5 30.7696 30.7696 39.5 20 39.5Z" fill="#337376" stroke="white"/>
        <path d="M27.8556 15.5871L27.8507 15.5674C27.4539 13.9633 25.665 12.2421 24.0222 11.884L24.0037 11.8802C21.3466 11.3733 18.6524 11.3733 15.9959 11.8802L15.9768 11.884C14.3345 12.2421 12.5457 13.9633 12.1483 15.5674L12.144 15.5871C11.6534 17.8272 11.6534 20.099 12.144 22.3391L12.1483 22.3587C12.5287 23.8944 14.1844 25.5365 15.7658 25.9882V27.7788C15.7658 28.4268 16.5556 28.7451 17.0047 28.2775L18.8189 26.3917C19.2124 26.4137 19.6061 26.426 19.9998 26.426C21.3373 26.426 22.6754 26.2995 24.0037 26.0461L24.0222 26.0422C25.665 25.6841 27.4539 23.9629 27.8507 22.3588L27.8556 22.3392C28.3461 20.099 28.3461 17.8272 27.8556 15.5871ZM26.4199 22.0143C26.155 23.0608 24.7968 24.3618 23.7176 24.6022C22.3047 24.8708 20.8807 24.9857 19.4582 24.9463C19.4299 24.9455 19.4027 24.9564 19.383 24.9767C19.1811 25.1839 18.0583 26.3365 18.0583 26.3365L16.6494 27.7825C16.5464 27.8899 16.3654 27.8169 16.3654 27.6686V24.7023C16.3654 24.6533 16.3304 24.6117 16.2823 24.6023C16.282 24.6022 16.2817 24.6022 16.2815 24.6021C15.2023 24.3617 13.8445 23.0607 13.5791 22.0142C13.1376 19.9894 13.1376 17.9367 13.5791 15.9118C13.8445 14.8654 15.2023 13.5643 16.2815 13.324C18.7489 12.8547 21.2507 12.8547 23.7176 13.324C24.7973 13.5643 26.155 14.8654 26.4199 15.9118C26.8619 17.9368 26.8619 19.9894 26.4199 22.0143Z" fill="white"/>
        <path d="M22.3471 23.3828C22.1812 23.3324 22.0231 23.2985 21.8762 23.2376C20.3547 22.6063 18.9543 21.7919 17.8451 20.5435C17.2143 19.8336 16.7206 19.0321 16.3033 18.1839C16.1054 17.7816 15.9386 17.3636 15.7686 16.9483C15.6136 16.5696 15.8419 16.1784 16.0823 15.8931C16.3079 15.6253 16.5982 15.4203 16.9126 15.2693C17.158 15.1514 17.4 15.2194 17.5792 15.4274C17.9667 15.877 18.3225 16.3497 18.6107 16.8709C18.7879 17.1915 18.7393 17.5834 18.4181 17.8016C18.3401 17.8546 18.2689 17.9169 18.1962 17.9768C18.1325 18.0293 18.0724 18.0823 18.0287 18.1534C17.9488 18.2834 17.945 18.4368 17.9965 18.5782C18.3925 19.6666 19.06 20.5128 20.1555 20.9687C20.3308 21.0416 20.5068 21.1265 20.7087 21.103C21.0469 21.0635 21.1564 20.6925 21.3934 20.4987C21.6251 20.3093 21.9211 20.3068 22.1706 20.4647C22.4202 20.6226 22.6621 20.7922 22.9026 20.9636C23.1387 21.1318 23.3737 21.2963 23.5915 21.4881C23.8008 21.6724 23.8729 21.9143 23.755 22.1646C23.5392 22.6228 23.2251 23.0041 22.7721 23.2475C22.6442 23.3161 22.4914 23.3383 22.3471 23.3828C22.1812 23.3323 22.4914 23.3383 22.3471 23.3828Z" fill="white"/>
        <path d="M20.0038 14.7447C21.9941 14.8005 23.6288 16.1213 23.9791 18.0889C24.0387 18.4242 24.06 18.767 24.0865 19.1072C24.0977 19.2504 24.0167 19.3864 23.8622 19.3882C23.7027 19.3901 23.6309 19.2566 23.6205 19.1136C23.6 18.8304 23.5858 18.5459 23.5468 18.265C23.3407 16.7824 22.1585 15.5559 20.6828 15.2927C20.4608 15.253 20.2335 15.2426 20.0085 15.219C19.8663 15.2041 19.6801 15.1955 19.6486 15.0187C19.6222 14.8705 19.7472 14.7525 19.8884 14.7449C19.9267 14.7428 19.9653 14.7446 20.0038 14.7447C21.9941 14.8005 19.9653 14.7446 20.0038 14.7447Z" fill="white"/>
        <path d="M23.029 18.6673C23.0258 18.6922 23.024 18.7506 23.0095 18.8057C22.9566 19.0055 22.6537 19.0305 22.5839 18.8288C22.5633 18.769 22.5602 18.7009 22.5601 18.6365C22.5594 18.2149 22.4677 17.7938 22.2552 17.4271C22.0367 17.0501 21.7028 16.7332 21.3113 16.5415C21.0745 16.4255 20.8184 16.3535 20.5589 16.3105C20.4455 16.2918 20.3309 16.2804 20.2169 16.2645C20.0788 16.2453 20.005 16.1573 20.0116 16.0212C20.0177 15.8937 20.1109 15.8019 20.2499 15.8098C20.7066 15.8357 21.1478 15.9344 21.5539 16.1495C22.3796 16.5868 22.8513 17.277 22.989 18.1987C22.9952 18.2404 23.0052 18.2818 23.0084 18.3237C23.0162 18.4272 23.0211 18.5308 23.029 18.6673C23.0258 18.6922 23.0211 18.5308 23.029 18.6673Z" fill="white"/>
        <path d="M21.7903 18.6199C21.6238 18.6229 21.5347 18.5307 21.5175 18.378C21.5056 18.2716 21.4962 18.1637 21.4708 18.0602C21.4207 17.8562 21.3123 17.6672 21.1407 17.5422C21.0597 17.4832 20.9679 17.4402 20.8718 17.4124C20.7497 17.3772 20.6228 17.3869 20.5009 17.357C20.3686 17.3246 20.2954 17.2174 20.3162 17.0933C20.3351 16.9803 20.4451 16.8921 20.5685 16.901C21.3402 16.9567 21.8916 17.3556 21.9703 18.264C21.9759 18.3281 21.9824 18.3959 21.9682 18.4572C21.9439 18.5622 21.8661 18.6148 21.7903 18.6199C21.6238 18.6229 21.8661 18.6148 21.7903 18.6199Z" fill="white"/>



    </symbol>

    <symbol viewBox="0 0 40 40" id="footer-telegram">
        
        <path d="M20 39.5C9.23045 39.5 0.5 30.7696 0.5 20C0.5 9.23045 9.23045 0.5 20 0.5C30.7696 0.5 39.5 9.23045 39.5 20C39.5 30.7696 30.7696 39.5 20 39.5Z" fill="#337376" stroke="white"/>
        <path d="M26.3768 13.739L10.3712 19.9761C9.85282 20.1782 9.88423 20.9221 10.4179 21.0797L14.4851 22.2807L16.0029 27.0971C16.1615 27.6002 16.799 27.7527 17.1681 27.3759L19.2709 25.2288L23.3969 28.2573C23.9018 28.6279 24.6209 28.3526 24.7491 27.7395L27.4818 14.6747C27.6156 14.0347 26.986 13.5016 26.3768 13.739ZM24.3701 16.6384L16.9356 23.2127C16.8615 23.2782 16.8144 23.3689 16.8033 23.4672L16.5171 26.0117C16.5078 26.0947 16.3916 26.1057 16.3668 26.026L15.1892 22.2312C15.1353 22.0575 15.2056 21.8693 15.3601 21.7734L24.1395 16.3284C24.3414 16.2031 24.5481 16.481 24.3701 16.6384Z" fill="white"/>


    </symbol>

    <symbol viewBox="0 0 7 11" id="pagination-prev">
        <path d="M6.08119 1.75001C6.08119 1.65961 6.04102 1.57925 5.98075 1.51898L5.47852 1.01675C5.41825 0.956482 5.32785 0.916302 5.24749 0.916302C5.16713 0.916302 5.07673 0.956482 5.01646 1.01675L0.335659 5.69755C0.275391 5.75782 0.235212 5.84822 0.235212 5.92858C0.235212 6.00894 0.275391 6.09934 0.335659 6.15961L5.01646 10.8404C5.07673 10.9007 5.16713 10.9409 5.24749 10.9409C5.32785 10.9409 5.41825 10.9007 5.47852 10.8404L5.98075 10.3382C6.04102 10.2779 6.08119 10.1875 6.08119 10.1072C6.08119 10.0268 6.04102 9.93639 5.98075 9.87612L2.0332 5.92858L5.98075 1.98104C6.04102 1.92077 6.08119 1.83036 6.08119 1.75001Z" fill="#2C3A4E"/>
    </symbol>

    <symbol viewBox="0 0 7 11" id="pagination-next">
        <path d="M6.75977 5.92858C6.75977 5.84822 6.71959 5.75782 6.65932 5.69755L1.97852 1.01675C1.91825 0.956482 1.82785 0.916302 1.74749 0.916302C1.66713 0.916302 1.57673 0.956482 1.51646 1.01675L1.01423 1.51898C0.953962 1.57925 0.913783 1.66965 0.913783 1.75001C0.913783 1.83036 0.953962 1.92077 1.01423 1.98104L4.96177 5.92858L1.01423 9.87612C0.953962 9.93639 0.913783 10.0268 0.913783 10.1072C0.913783 10.1976 0.953962 10.2779 1.01423 10.3382L1.51646 10.8404C1.57673 10.9007 1.66713 10.9409 1.74749 10.9409C1.82785 10.9409 1.91825 10.9007 1.97852 10.8404L6.65932 6.15961C6.71959 6.09934 6.75977 6.00894 6.75977 5.92858Z" fill="#2C3A4E"/>
    </symbol>

    <symbol viewBox="0 0 11 9" id="card-select">
        <path d="M11 0.697674C11 0.27907 10.5988 0.00581395 9.97149 0.00581395L1.02851 0C0.401194 0 0 0.273256 0 0.69186C0 0.918605 0.124005 1.09884 0.269894 1.34302L4.53714 8.36047C4.82891 8.84302 5.1134 9 5.5 9C5.8866 9 6.17109 8.84302 6.46286 8.36047L10.7301 1.34302C10.8833 1.10465 11 0.924419 11 0.697674Z" fill="black"/>
    </symbol>
</svg>

